# xmcd
# 
# Track frame offsets:
#     187
#     38695
#     61730
#     85097
#     123085
#     142002
# 
# Disc length: 2157
# 
# Revision: 1
# Processed by: cddbd v1.5.2PL0 Copyright (c) Steve Scherf et al.
# Submitted via: BonkEnc v1.0.8
# 
DISCID=44086b06
DTITLE=Deodato - Artistry
DYEAR=1974
DGENRE=Fusion
TTITLE0=Intro - Rio Sangre
TTITLE1=St. Louis Blues
TTITLE2=Farewell To A Friend
TTITLE3=Super Strut
TTITLE4=Pavane For A Dead Princess
TTITLE5=Jivin'
EXTD=
EXTT0=
EXTT1=
EXTT2=
EXTT3=
EXTT4=
EXTT5=
PLAYORDER=
